<?xml version="1.0" standalone="no"?><!DOCTYPE svg PUBLIC "-//W3C//DTD SVG 1.1//EN" "http://www.w3.org/Graphics/SVG/1.1/DTD/svg11.dtd"><svg t="1748264463564" class="icon" viewBox="0 0 1024 1024" version="1.1" xmlns="http://www.w3.org/2000/svg" p-id="9804" xmlns:xlink="http://www.w3.org/1999/xlink" width="200" height="200"><path d="M857.7 817.7c-28.8-86.3-58.5-149.7-112.3-210.4l9.9-9.9c4.4-4.4 7.3-9.9 8.6-16 1.2-6 0.7-12.3-1.6-18.1l-15.1-37.8 104.3-119.1c3.4-3.9 5.8-8.5 7-13.6 1.2-5 1.1-10.2-0.2-15.2s-3.8-9.6-7.3-13.4c-3.5-3.8-7.9-6.7-12.7-8.4l-267.1-94.3c-74.1-62.6-168-96.9-264.9-96.9h-110c-8.4 0-16.4 3.3-22.3 9.2-5.9 5.9-9.2 14-9.2 22.3V306c0 97 34.3 190.9 97 265l94.3 267.1c1.7 4.9 4.6 9.2 8.4 12.7 3.8 3.5 8.4 6 13.4 7.3 5 1.3 10.2 1.4 15.2 0.2s9.7-3.6 13.6-7L525.8 747l37.8 15.1c5.7 2.3 12 2.9 18.1 1.6 6-1.2 11.6-4.2 16-8.6l9.9-9.9c60.6 53.8 124 83.5 210.4 112.3 5.6 1.9 11.5 2.1 17.2 0.8 5.7-1.3 10.9-4.3 15.1-8.4 4.1-4.1 7.1-9.4 8.4-15.1 1.1-5.5 0.8-11.5-1-17.1zM773.3 400l-53 60.6c-16.4-35.4-36.3-69-59.6-100.3L773.3 400zM400 773.3l-39.7-112.6c31.3 23.2 64.9 43.2 100.3 59.6l-60.6 53z m184.4-94.2L567.5 696l-56-22.4c-51.4-20.6-99.1-49.5-141.1-85.5l-21.2-18.2c-38-32.6-68.6-73.1-89.5-118.6-20.9-45.5-31.8-95-31.8-145.1v-78.3h78.3c50.1 0 99.6 10.8 145.1 31.8 45.5 20.9 86 51.5 118.6 89.5l18.2 21.2c36 42 64.9 89.7 85.5 141.1l22.4 56-16.9 16.9-94.7 94.7z m67.7 21.6l48.6-48.6c31.8 36.5 54 74.5 73.8 122.4-47.9-19.8-85.9-42.1-122.4-73.8z" p-id="9805"></path><path d="M385.7 291c-25.1 0-49.2 10-67 27.7-17.8 17.8-27.7 41.9-27.7 67s10 49.2 27.7 67c17.8 17.8 41.9 27.7 67 27.7s49.2-10 67-27.7c17.8-17.8 27.7-41.9 27.7-67s-10-49.2-27.7-67-41.9-27.7-67-27.7zM408 408c-5.9 5.9-14 9.2-22.3 9.2-8.4 0-16.4-3.3-22.3-9.2-5.9-5.9-9.2-14-9.2-22.3 0-8.4 3.3-16.4 9.2-22.3 5.9-5.9 14-9.2 22.3-9.2 8.4 0 16.4 3.3 22.3 9.2 5.9 5.9 9.2 14 9.2 22.3 0.1 8.4-3.2 16.4-9.2 22.3z" p-id="9806"></path></svg>